<svg id="Layer_1" data-name="Layer 1" xmlns="http://www.w3.org/2000/svg" viewBox="0 0 757 130"><defs><style>.cls-1{fill:#010000;}.cls-2{fill:#ffdc04;}</style></defs><path class="cls-1" d="M226.82,31.81l-.5.89-.23,20.08-23.4-.26-.23,20.32.79,16-.82.48-1.69-.51-.41.08-.41.4-1.45-.5-2.11,0-1.46.39.66-57.74-.48-.9.17-1,4.54.29,1.29-.14.57.33,5.91-.18.56.33,12.4.14,5.5.31v.56Zm-8.4,12,.06-5.34-16-.18.7,3,0,2.35Z"/><path class="cls-1" d="M262.33,42.58,262,44l-.1,8.27-7.21.48.89,6.65.33.25L259,74.7l-.25,1,2.6,13.56-7.45-.09-8.25-36.79-1.14.23-2.59,0-1.29-.26-.9.39.54,16.94-.5,1.13.47,1.78v.89l-.25.73.45,2.76-.73.48.71,1.06-.84,3-.06,4.94.22,2.19-8.58-.1.27-2.59.31-27-.83-12.57.4-7.36.1-8.67.18-1.21,30,.34.72,1-.25.89-.13,11Zm-9-2-.14-1.87-13.53-.15,0,3.8,13.52.48Z"/><path class="cls-1" d="M298.58,74.74l.07,1.38-.28,3.48-.33.65.4.32-.65.32.23.89.71,1.31-.73.64.48.17-.43,2.26.27,4.62-.48-.09L297.2,90l-.42.72h-.48l-.4-.66-.41.4-.65-.25-3.64,0-1-.41v.4l-3.81,0-3.88-.45-.25.48-6.56-.07-5.26-.55-.24-.24-.41.4h-.65l-1-15.89L268.42,49l.52-2.59,0-1.7-.48-.49.58-1.45v-.57l-.57-.33.49-.56-.51-11.67,28.18.32,1.37.74-.13,11.91.79,1.14-.09,1-.67,1.86.48.41-.36,3.8.64.41-.37,4.37.47.9v1.22l-.74.55.95,1.88-.49.4.24,1-.26.73,0,1.94.24.81-.33.49.23,1-.17.73.48.33-.33.89-.07,5.75.57.33Zm-8.33-.66-.19-4.62-.56-1.14.2-17.25-.65-.25.58-.88.1-8.34.27-2.43L277,39l.27,4.86-.33.65.4.16v.41l-.49.72.47,1.63-.12,10.61.48.57-.17.32-.57.32,1.21.74-1.39,1.12.83,5.36.16,7.45-.74.4.72.9,0,1.78-.45,3.72.24.49,7.13-.41,5.27.06,0-4.13-.15-1,.49-.32Z"/><path class="cls-1" d="M333.72,90.78,326,90.69l-.64-1.14.34-29.48-4.13,13.64-1.22.15-4.79-12.61-1-2.2.94,9.41-.24,21.78-8.75-.1-1.08-5,.4-34.91L305,31.16l1.56-1.2,7.45.09,5.8,16.5,6.43-17,8.35.09L333.48,33l-.34,1.7,1.44,1.63-.45,4,.53,10.13-.25,1.29.63,1-.66,1.78.27,4,0,4.37-.75,2.42.84,11.43-.15,13.37Z"/><path class="cls-1" d="M372.85,33.47l-.5.88-.23,20.09-23.4-.27-.23,20.33.79,16-.82.47-1.69-.5-.41.07-.41.4-1.45-.5-2.11,0-1.46.39L341.59,33l-.48-.89.17-1,4.54.29,1.29-.15.57.33,5.91-.17.57.33,12.39.14,5.5.3v.57Zm-8.4,12,.06-5.34-16-.19.7,3,0,2.35Z"/><path class="cls-1" d="M409.38,40.52l-1.06,1-3.8-.85-4.62-.05-1.46.23-.18,15.71.3,2.84-.23,19.84.23,1.21L398.51,85l.48.73-.49.16v.73l-.42,1,0,1.94.39,1.22-1,.8-7.86-.09-.47-.73.56-49.65L376.08,41l.35-1.7.08-7.45-.63-1.39V30l.32-.32,7.53.89,10,.12,1-.15,2.26.35,3.65-.13.56.33.25-.4.65-.23,1.22.09,1,.58,4.46.05.38,1.62L409,39.71Z"/><path class="cls-1" d="M463.58,32.31l0,2.67-1.38,14.4-8.58-.09.09-8.1-10.36-.12-1.08,2.09L441.82,80l.71,2,1.37.34,4.53,0,.64,1.06,1.8-1,.56.33,1.29,0,.49-.24.17-15.14-6.72-.08.12-10.77,15.8.18-.4,34.82-29.32-.33L433.54,32Z"/><path class="cls-1" d="M497.49,92.55l-3.16-.2-1.22.23-.72-.49-3.16.45L469,92.31l0-3.65-.62-2.84.6-52.88-.72-.34,27.62.32,1.69.67-.1,8.58-1.29-.58-15.55-.18-3.32.13-.49.48-.07,5.67.38,3.08-.07,5.59.64.57,8.1.09,5.27-.5.12,3.48-.32.32.34,5.75-14.66-.16.91,5.27-.07,6.64-.28,2.59.29,3.49,20.16.23Z"/><path class="cls-1" d="M533,72.06l-.25.32-.14,12.47-.65.24,0,4.53.3,2.35-7.13-.08L510.88,54.63l-.42,36.85-7.93-.09-.84-5.11.49-.48L501,71.29l.42-1.62.4-34.5-.38-2.43,6.23.07.41-.4,1,.41,1.87-.38,1.55,6.42L513.56,40,516,46.59l.89.5-.41.48,1.34,2.77-.25.48L524,67.58l.64.9,0-4.21-1.21-14.11.41-.48L524,42l-.64-.41L524,41l.09-8,8.5.1-.22,19.68.64.66-.5,1.21.63,1L533,69.79Z"/><path class="cls-1" d="M567.06,93.34l-3.16-.2-1.21.23-.73-.49-3.16.45-20.25-.23,0-3.65L538,86.61l.6-52.88-.73-.34,27.62.32,1.69.66L567.07,43l-1.29-.58-15.55-.18-3.33.13-.49.48-.06,5.67.37,3.08-.06,5.59.64.57,8.1.09,5.27-.51.12,3.49-.33.32.34,5.75-14.66-.16.91,5.27L547,78.61l-.27,2.59.28,3.49,20.17.23Z"/><path class="cls-1" d="M602.75,46.44l-.34,1.37-.09,8.27-7.22.48.9,6.65.32.25,3.07,15.1-.26,1,2.61,13.56L594.28,93,586,56.22l-1.13.23-2.59,0-1.3-.26-.89.39.53,16.94-.49,1.13.46,1.78v.89l-.25.73.45,2.76-.73.48.72,1.06-.85,3-.05,4.94.21,2.19-8.58-.1.27-2.59.31-27-.83-12.56.41-7.37.1-8.67.17-1.21,30,.34.72,1-.26.89-.12,11Zm-9-2-.14-1.87-13.52-.15,0,3.8,13.52.48Z"/><path class="cls-1" d="M639.39,93.59l-.32.32-1.79,0L633,93.2l-1,.15-1.69-1.8.2-3.08-.64-.41v-.65l.41-.4-1.44-2.36.42-1.22-2.6.62-2-.18-6,.17-.8-1.06-.92,2.34-1.36,5.25-.35,2.83-8-.82,3.37-25.48,3.77-18.83.84-2.5,0-3.4.57-.64,0-2.35.83-1.53.53-3.72,11.25.62.29,3.08.62,2.11.79,1.63.4.33,0,3.32.95,1.63-.18,1.78.57-.08,1.6,8.37.72,1,1,6.24,1,3.9-.25.65,1.55,6.09.45,2.92.13,2.84.79,1.54v.41l-.41.64.31.9.43,5.19ZM624,49.36h-1l-2.33,19.17h.73V69l-1.33,2.82-.76,2.58,1.71-.3,6.48-.33Z"/><path class="cls-1" d="M669.45,43.47l-1.07,1-3.79-.85-4.62,0-1.46.22-.18,15.72.29,2.83-.22,19.85.23,1.21,0,4.54.47.73-.48.16v.73l-.42,1.05,0,1.94.39,1.22-1,.8-7.86-.09-.47-.73.56-49.65L636.15,44l.35-1.7.08-7.45L636,33.45V33l.33-.32,7.52.89,10,.12,1-.16,2.26.35,3.65-.12.56.33.25-.4.65-.23,1.22.09,1,.58,4.45,0,.39,1.62-.08,6.89Z"/><path class="cls-1" d="M704.28,79.34l.06,1.38-.28,3.48-.33.65.4.32-.65.32.23.9.72,1.3-.74.64.49.17-.43,2.26.27,4.62-.49-.09-.64-.65-.41.72H702l-.4-.66-.41.4-.64-.25-3.65,0-1-.41v.4l-3.8,0-3.89-.45-.24.48-6.57-.07-5.25-.55-.24-.24-.41.4h-.65l-1-15.89.29-24.86.51-2.59,0-1.7-.48-.49.58-1.45v-.57l-.56-.33.49-.56-.52-11.67,28.19.32,1.37.75-.14,11.9.8,1.14-.09,1-.67,1.86.48.41-.37,3.8.64.41L704,60.15l.48.89,0,1.22-.73.55,1,1.88-.49.4.23,1-.25.73,0,1.94.23.81-.33.49.23,1-.17.73.48.33-.33.89-.06,5.75.56.33Zm-8.34-.66-.19-4.62-.55-1.14.19-17.25-.64-.25.58-.88.09-8.34.27-2.43-13-.15.27,4.86-.33.65.4.17v.4l-.5.72.47,1.63-.12,10.61.48.57-.16.32-.58.32,1.21.74-1.39,1.12.83,5.36.16,7.45-.73.4.72.9,0,1.78-.45,3.72.24.49,7.13-.41,5.26.06.05-4.13-.15-1,.49-.32Z"/><path class="cls-1" d="M742.06,48l-.34,1.38-.1,8.26-7.21.48.9,6.65.32.25,3.07,15.1-.26,1L741,94.67l-7.45-.09L725.34,57.8l-1.13.22-2.6,0-1.29-.26-.89.39L720,75.07l-.5,1.13.47,1.78v.89l-.25.73.45,2.76-.73.48.72,1.06-.85,3,0,4.94.21,2.19-8.58-.1.27-2.59.31-27-.83-12.57.41-7.36.09-8.67.18-1.21,30,.34.71,1-.25.89-.12,11Zm-9-2L733,44.11,719.42,44l0,3.8,13.52.48Z"/><path d="M13.06,23.2s.38,11.13,2.46,11.9S23.36,35,23.36,35s10.88,24.87,11.15,26.9c0,0-2.54,1.31-2.52,3.09a6,6,0,0,0,5.57,5.27c3.66.2,14.87-.86,13.84-12.93S37.9,13.75,13.06,23.2Z"/><path d="M41,22.14s-.91,4.45,1.17,4.8a13.38,13.38,0,0,0,4.14-.06L56,66.25s-4.51.19-4.5,1.06-.59,3,1,3.35S64.26,72,64.24,70.49s-1.55-6-1.92-6.08-2.3.91-2.3.91l-.28-10.59L67.85,67.2S65.58,70.47,65.72,72,68,73.8,69.65,73.4s3.88-9.78,3.86-11.27-2.37-3.58-2.37-3.58L68.75,62.2l-5.24-8.15s5-3.31,4.21-12.4-.73-17-7.13-20.72S41,22.14,41,22.14Z"/><path d="M73.88,18.09s-2.42,4.39-1.08,4.72,5.33.69,5.33.69L74.62,69.28s-1.94,1-1.94,1.22-1.18,2.38,0,2.72,6.63.38,7-.46,2-5.36-.08-5.33l-2.09,0s1.28-6.89,2-7.49,9-1.79,9.49-.85.09,6,.09,6-3.3-.24-3.29.67S86.48,71,87.45,71s7.78-1.89,7.77-2.72-.58-6.51-1.31-6.5S92,62.87,92,62.87L83.7,22.57s5.87.86,5.85-.21-1.16-4.48-2.14-4.47Z"/><path d="M92.5,18.13s-1.36,5.63.08,5.61l2.77,0s.36,45.74,1.39,45.72,7.09-8.27,7.09-8.27,2.33,5.66,3.57,5.95,20.24-35.55,20.18-39.86c0,0,3.22,2.21,3.7-.26s.22-6.2-.09-6.19-11.83-.12-12.42,1.74-1.48,4.24.07,4.32,3.9-.06,3.9-.06-14,32.54-15,32c-.65-.39-.84-9.52-2.2-8.86C104.37,50.47,101,56,101,56s1.14-27.78,2.56-29.13,4.12.35,4.3-.89,2.58-6.94.61-8.09S94.14,17.73,92.5,18.13Z"/><path d="M55.25,75.08S54,72.57,56.1,71.9s4.45-.37,4.56,1.77S59.59,86.19,58,86.3a2.86,2.86,0,0,1-2.3-.64A21,21,0,0,1,55.52,82C55,81.16,51.76,80,51,81.62s.41,5.75,2.22,7.83,9.23,10.8,9.61,14.44,6.14,15.47,1.19,15.22-8.72-9-8.72-9a2.37,2.37,0,0,1-1.93.43c-1-.31-1.53-4.35-1.53-4.76s3.82-4.43,4.65-3.63,3.53,3.6,3.06,4.66a7.33,7.33,0,0,1-1,1.71s2.31,2.32,3.37,2.22S61.1,103.92,58,101,38.23,80.43,42.29,75.51,51.72,72,55.25,75.08Z"/><path d="M63.09,76.35s.27-1.51,3.78-1.56S73,78.31,73.81,83.1s3.64,42.11.64,44-5.58-5.18-6.47-10.43C66.9,110.3,58.32,85.5,63.09,76.35Z"/><path d="M81.29,74.58s-4.3.66-4.57,2.57,2,49.14,2,49.14-2.1-.09-2.19,1,0,2.62,1.14,2.6,4.09-1,4.38-2.26,1-3.33.31-3.32a7.58,7.58,0,0,0-1.31.14l.88-31.57s1.81,10.89,2.24,10.88,2.94-9.36,2.94-9.36S85.43,118.88,85,119.49s-1.49.82-1.47,1.83.08,3.5.91,3.49,4.69-3.58,4.68-4.58,1.31-6.33-.09-6.3-1.77,2.62-1.77,2.62S93,76.41,91.2,74.44,84,91,84,91,84.9,75.23,81.29,74.58Z"/><path d="M99,86.87l2.58.22s.44-1.69.51-2.1,1.81-1,3-.85-.77,10.31-.75,11.41-2.34,1.53-3.26,1.54-.26-2.32-.26-2.32-2.88-.07-3.18.51S96.75,109,96.75,109l3.63-1.06a28,28,0,0,1,.35-3.19c.22-1,2.87-.14,3.14-.1.53.06-.65,5.88-.64,6.57s-11,5.4-11.87,5.41-.72-2.5-.65-3.19,1.37-.86,1.37-.86l3.37-28.5a3.61,3.61,0,0,1-1.88.41c-.84-.14.24-9.62.24-9.62,2.27-1.24,15.76-7,16.47-5.61s-.85,9.81-1.07,10.2-2.66.64-3.5.66,0-3,0-3-5.33.86-6.11,1.72S99,86.87,99,86.87Z"/><polygon points="14.4 68.37 18.39 64.31 44.85 100.08 14.4 68.37"/><polygon points="112.37 81.9 118.66 67.66 116.45 67.69 112.37 81.9"/><polygon points="46.6 14.73 40.52 7.01 43.48 5.38 46.6 14.73"/><polygon points="107.39 13.96 109.43 -0.17 114.13 1.5 107.39 13.96"/><polygon points="109.98 14.5 113.18 9.56 115.81 9.61 109.98 14.5"/><path class="cls-2" d="M34.1,39.19s6.42,18.63,7.16,19,3.58-2.82,3.4-7.32S41.77,34.23,34.1,39.19Z"/><path class="cls-2" d="M57,30.56S58.59,43.8,59.37,46s2.88-9.46,2.42-12.08S59.81,29.53,57,30.56Z"/><path class="cls-2" d="M66.63,88.28s.86-5,3-2,3.85,26.09,1.74,26.21S66,92.53,66.63,88.28Z"/><polygon points="48.15 109.45 42.12 102.1 41.24 104.16 48.15 109.45"/><polygon points="113.03 65.35 114.49 62.45 115.55 62.7 113.03 65.35"/><polygon points="67.78 22.8 66.56 15.35 69 15.31 67.78 22.8"/><polygon points="108.97 53.35 109.92 47.45 111.84 47.43 108.97 53.35"/><path class="cls-2" d="M82.35,35s-.78-.87-.83.24-2,16.76-.4,17c1.36.21,4.65.49,5.08-.88S83.27,36.35,82.35,35Z"/><polygon class="cls-2" points="34.62 75.26 6.85 30.3 0.2 36.95 34.62 75.26"/><polygon class="cls-2" points="116.87 81.49 111.76 99.85 119.74 82.47 116.87 81.49"/><polygon class="cls-2" points="61.64 19.15 51.92 0.72 56.73 0.64 61.64 19.15"/><polygon class="cls-2" points="90.43 16.15 93.04 2.24 96.06 2.84 90.43 16.15"/><polygon class="cls-2" points="122.66 55.38 136.79 20.59 142.01 21.72 122.66 55.38"/><polygon points="35.93 20.16 27.31 0.72 22.31 1.49 35.93 20.16"/><polygon class="cls-2" points="136.76 57.77 129.25 69.01 139.95 57.77 136.76 57.77"/><polygon points="191.5 103.78 191.5 115.86 749.19 123.72 757.32 111.66 191.5 103.78"/></svg>