<svg id="Layer_1" data-name="Layer 1" xmlns="http://www.w3.org/2000/svg" viewBox="0 0 402 73"><defs><style>.cls-1{fill:#ffdc04;}.cls-2{fill:#010000;}</style></defs><polygon class="cls-1" points="0.2 -0.13 14.32 67.07 402.15 69.23 379.61 -0.13 0.2 -0.13"/><path class="cls-2" d="M53.1,49.13l-.41.35-1.6,2.06L50,53.3l-4.05-.25L32.62,52.9l.31-.2,0-2.94-.27-2.59.35.06.61-.2.71.42,1.72-.09.29-25-.25-1.12L33,21.42l-.35-.16.2-.55,0-2.95-.17-2.68,17.17,1.1.9,1.48L53.42,21ZM47.79,47.7l-.61-8.88-.28-2.08.46-.15-.5-5.08,0-3.6.58-6.63-5.88-.07.32,3.2-.27,23.42,3.25,0Z"/><path class="cls-2" d="M64.52,16.4l-.37,32.5-.51,5.37-6.13-.88L57.92,17l-.45-.15,1-.5Z"/><path class="cls-2" d="M89.24,23.12,81.53,23l-.35,31.49-4-.4-.91.39-1-.06.13-10.7-.1-.45.21-.31-.36-4.51-.2-.26L75.49,37l.16-14L68,22.88l.07-6.29,21.14.24V18l-.16.45.25.51Z"/><path class="cls-2" d="M123.23,17l0,1.68-.86,9L117,27.59l.06-5.07-6.49-.07-.67,1.31-.27,23.07.45,1.27.86.21,2.84,0,.39.66,1.13-.65.35.21h.81l.31-.15.1-9.48-4.21-.05.08-6.74,9.89.11-.25,21.8L104,53.86l.42-37.11Z"/><path class="cls-2" d="M146.23,54.34l-.21.2h-1.11l-2.68-.44-.67.1-1.05-1.13.13-1.92-.41-.26v-.41l.25-.25-.89-1.48.26-.76-1.63.39L137,48.25l-3.76.11-.5-.66-.57,1.46-.85,3.29-.22,1.77-5-.51,2.11-16L130.53,26l.52-1.56,0-2.13.35-.41,0-1.47.52-.95.33-2.33,7,.38.19,1.93.39,1.32.49,1,.25.21,0,2.08.6,1-.12,1.11.36,0,1,5.23.45.61.62,3.92.63,2.44-.16.4,1,3.82.29,1.82.08,1.78.49,1v.25l-.26.4.2.57.27,3.24ZM136.6,26.65H136l-1.46,12H135V39l-.83,1.77-.47,1.61,1.06-.19,4.06-.2Z"/><path class="cls-2" d="M165.08,55.27l-1.59-7-8.37-.09-1.24,6.73-4.72-.06,4-27.23.26-.1.64-3.44,1-3.29.28-2.93,4.87.05,2.08-.13.34,1.12L162.59,20l.3.25,1,3.77,1.25,5.84,2.62,15,1.56,10.47Zm-2.59-13-3.32-16,0,3.6-2.57,12.29Z"/><path class="cls-2" d="M193.19,39.82l.2.2-.26.76.15.15-.36,5.12.35.56-.36.15v.56l.41.2-.41.51-.27,1-.27,5.78-5.78-.07-.3-.61.16-.46-1.83-3.92-2.52-6.06-2.7-7.29-1-3.41,0,3.55.3.72-.27,1.46.37,3.05-.06.41.15.35-.54,11.51-.86.24-2,0-.25-.26-.41.15h-1.11L172.9,54l-.59-24,.08-7.1.67-5.62,1.27.26,2.58,0,.87-.29,3.71,8.46.3.2-.11.21.55,1.22,0,.61L184,31.6l2.7,8.09.25.26-.67-21.21.47-1.21,5.32.06.54,6.35,0,1.47.37,3.8.2.21v.51l-.31.15Z"/><path class="cls-2" d="M228.62,18.56l-.33,1.73.1.4L228.32,27h-.2l-.06,5.17-.57,1.36-1.2,11.29-.59,2.79.31,0-1.31,3.69.14.56-.24,3.39-4,0-.66-.47.06-1.11-.62-12-.61,0-2.18,13.16-.25.15-4.06,0L208.6,17.42l4.92.06-.36.5,0,2.18.4,1-.16.36.43,2.23.95,10.05,4-15.57,1.55,7L222,34.41l.25.36.2,0,1.92-17,4,0Z"/><path class="cls-2" d="M250.14,52l.13,2.23-17.65-.19L232,37.37,232.14,25,231.49,24l.42-.5.06-5.63,17.64.2.2.61,0,2.39-.16.5.58,2.64-3.55,0-8.72.36-.41.25-.06.91-.56.3.53,6.5,3.15-.17,1.82.22,3.39.75,0,2.08-.37,1.42.34.71v1.07l-8.37.36-.21.5-.27,1.77,0,1.42.25.51-.05,4.41.6.32,8.27.09,1.22-.34,3.66-.57Z"/><path class="cls-2" d="M285,51.76l-.41.35L283,54.17l-1.13,1.76-4.06-.25-13.28-.15.31-.2,0-2.94-.28-2.59.36.06.61-.2.7.42L268,50l.28-25-.24-1.12-3.09.22-.36-.16.21-.55,0-2.94-.18-2.69,17.18,1.1.9,1.48,2.6,3.33Zm-5.31-1.43-.61-8.88-.28-2.08.46-.15-.5-5.08,0-3.6.58-6.63-5.88-.07.32,3.2-.27,23.42,3.25,0Z"/><path class="cls-2" d="M309.12,55.83l-19.47-.22L289.91,32l-.57-3.36.05-4.15.26-.61.06-5.47,5.58.31,13.53.16-.27,23.78Zm-5.83-5.23.19-16.43-.4-9.39-.35-.61L295,24.08l.46,8.58-.31.45.3.72-.41.45.4.15-.18,16.08Z"/><path class="cls-2" d="M330.25,56.79l-2-.13-.76.14-.45-.3-2,.28-12.67-.15,0-2.28L312,52.57l.38-33.11-.46-.2,17.29.19,1.06.42-.06,5.37-.81-.36-9.73-.11-2.08.08-.31.3,0,3.55.23,1.93,0,3.5.4.36,5.07,0,3.3-.31.08,2.18-.2.2.21,3.6-9.18-.1.57,3.3-.05,4.16-.17,1.62.18,2.18,12.63.14Z"/><path class="cls-2" d="M352.5,44l-.16.21-.09,7.8-.4.15,0,2.84.18,1.47-4.46-.05-8.91-23.32-.27,23.07-5-.06-.52-3.2.3-.3-.76-9.09.27-1,.24-21.6-.23-1.52,3.9,0,.26-.25.6.26,1.17-.24,1,4,.7.72L341.83,28l.55.31-.26.3.85,1.74-.16.3,4,10.49.4.56,0-2.63-.76-8.83.26-.31.05-4.81-.4-.26.41-.35.05-5,5.33.06-.14,12.32.4.41-.32.76.4.61-.1,8.88Z"/><path class="cls-2" d="M363.22,54.93l-2.15,1.65-2,0-1.21-.72-.95-1.18-.6-1.32,0-1.12.77-1.21,1.13-1,1.22-.64h1.22l1.21.83.84,1.27.5,1.53Zm.14-12.17-2.15,1.65-2,0L358,43.66l-.95-1.17-.6-1.33,0-1.12.77-1.2,1.13-1.06,1.22-.64h1.22L362,38l.85,1.27.49,1.53Z"/></svg>