<svg id="Layer_1" data-name="Layer 1" xmlns="http://www.w3.org/2000/svg" viewBox="0 0 250 77"><defs><style>.cls-1{fill:#ffdc04;}.cls-2{fill:#010000;}</style></defs><polygon class="cls-1" points="0 7.45 0 70.55 241.49 76.61 250.15 -0.05 0 7.45"/><path class="cls-2" d="M64.43,48.82l-.15.21,0,1.87-.16,1,.3.41v.61l-.2-.05-.11,1.11.2.21-.34,2.73,0,3-.36.51,0,3.09-.31.65-3.9,0-.86-.31-.55-.36.15-14,.48-6.08-1.16,3.64-.43,2.33-.79,2.17-.28,2.58-.81.4-.76-.21-.68-2.9-3.14-9,.31,8.11-.09,8.12-.56,4.61-.21.45-4.31,0-.88-2.9.37-32.5.78-1.92.41-.3,3.5-.11,4.06,9.22.77,3.05v-.35l.41-1,1.39-6.27.57-.55,1.41-3.89,4.92.06.92,8.42h.15v.25l-.26.25.29,1,0,5,.29.56-.36.86Z"/><path class="cls-2" d="M85.65,60.12l.12,2.23-17.64-.2-.62-16.69.14-12.32L67,32.07l.41-.5.07-5.63,17.64.2.2.61,0,2.38-.16.51.58,2.64-3.55,0-8.72.36-.41.25-.06.91-.57.3.54,6.49,3.14-.16,1.83.22,3.39.75,0,2.08-.37,1.41.35.72v1.06L72.87,47l-.21.51-.28,1.77v1.42l.25.51-.05,4.41.6.31,8.26.09,1.23-.34,3.65-.56Z"/><path class="cls-2" d="M109,33.31l-7.7-.09L101,64.71l-4-.41-.92.4-1-.06.12-10.7-.1-.46.21-.3L95,48.66l-.2-.25.52-1.21.16-14.05-7.65-.08.07-6.29L109,27v1.16l-.16.46.25.51Z"/><path class="cls-2" d="M145.53,46.75v.31l-.35.2-.09,7.3-.11,1,.3.46L145,57.39l-.17,1.93.25.41,0,1.72-1.91,2.26L141.06,65l-17.49-.2-.15-.51-.27-2.89-.07-2.49.3-.3v-.31l3.34.3.26-.4-.09-1.38L127,56l-.14-.51,0-1.62.31-1.06-.65-.41v-.76l.82-.81-.45-.46.11-10-.44-1.42.43-2.23.23-2.73.32-1.21-3.7-.05.16-.76,0-1.87-.14-1,.41-.45-.2-.36L124,26.73l13.59.15,3.7-.31,3.51,3.9.37,7.35.27,2.8-.3.19.3.46-.37,1.27,0,2.89Zm-6.62,11-.3-4.72.31-.91-.72-3v-.76l.15-.45-.1,0-.34-1.48.31-.2-.27-3,.11-9.89-4.91-.06.57,2.54L133.64,44l-.16.3.22,3.56-.12,10.85,5.22,0,.11-.5Z"/><path class="cls-2" d="M156.63,55.24l-.42,1.47-.07,6.19-.3-.06,0,1.88.2.15-6.44-.07L149,62.36l.31-.71,0-3.29-.21-8.83.21-.4,0-4.62L149,44l.31-.5-.13-2.13.2-3.35.15-.2-.3-.2.11-1.07.31-.55-.4-.51.32-1,.06-5.63L150,27l4.2,0,1.63-.13.64,6.09-.19,16.53.11,3.6L156.28,55Z"/><path class="cls-2" d="M180.66,33.1l-.66.66-2.38-.54-2.89,0-.91.14-.12,9.84.19,1.77-.14,12.43.14.76,0,2.84.3.46-.31.1V62l-.27.66v1.22l.25.76-.62.5-4.92-.06-.3-.46.36-31.08-8.52-.09.22-1.07.05-4.66-.4-.87v-.3l.21-.2,4.71.56,6.24.07.61-.1,1.41.22,2.29-.07.35.2.15-.25.41-.15.76.07.61.36,2.78,0,.24,1,0,4.3Z"/><path class="cls-2" d="M190.36,62.93l-2.14,1.65-2,0L185,63.83l-.95-1.17-.59-1.33V60.21l.77-1.2L185.4,58l1.22-.64h1.22l1.21.83.85,1.28.49,1.52Zm.14-12.17-2.15,1.65-2,0-1.21-.73-.95-1.17-.6-1.33,0-1.11.77-1.21,1.13-1.05,1.22-.65H188l1.21.83.85,1.28.48,1.52Z"/></svg>