<svg id="Layer_1" data-name="Layer 1" xmlns="http://www.w3.org/2000/svg" viewBox="0 0 179 64"><defs><style>.cls-1{fill:#fff;}</style></defs><polygon points="-0.3 11.2 10.62 63.56 178.7 56.71 174.18 -0.33 -0.3 11.2"/><path class="cls-1" d="M39.83,46.29l-.39.11-4,0-.5-.2-1.86.14-2,0L29.06,46l-1.35,0-.24.23-.58-.12-2.24,0-.23-3.84.1-9-.47-9.61.06-5.23.24-.66,1.66.18L39,18l.27.43-.18,1.36V21l.18,1-.16.58.07.5v0l.42,4.38-4.5-.05.06-4.72-.35-.24-6.51-.07,0,.27L28,23l.38.2-.11,10.34.07.2.19,0-.35.77.3.24-.22,2.7.34.24-.32.85.06,1.74.23.12,0,.2-.19.19.18.66-.08.31,6.94-.35-.08.15h.27l.09-.78-.38-7.17-4.46,0-.26-4.26.38.2,6.71.07,2.05-.17-.06,5.15.27,3.61Z"/><path class="cls-1" d="M56,43.91l.09,1.71-13.48-.16-.47-12.75.1-9.41-.49-.82.31-.39.05-4.3L55.57,18l.15.47,0,1.82-.12.38.44,2-2.71,0-6.67.27-.31.19,0,.7-.43.23.41,5,2.4-.13,1.39.17,2.59.58,0,1.59-.28,1.08.27.54v.82l-6.4.27-.16.39-.21,1.35v1.09l.19.38,0,3.37.46.24,6.32.08.93-.27,2.79-.43Z"/><path class="cls-1" d="M74.05,35.28l.16.16L74,36l.11.12-.28,3.91.27.42-.27.12V41l.31.16-.31.39-.21.77-.2,4.41L69,46.69l-.22-.46.12-.35-1.4-3-1.93-4.63L63.5,32.68l-.78-2.6,0,2.71.23.54-.21,1.13L63,36.78l0,.31.11.28-.4,8.79-.67.18H60.48l-.19-.2-.31.11h-.85l-.58-.12L58.1,27.78l.06-5.43.51-4.29,1,.21,2,0,.67-.23,2.83,6.47.23.15-.08.16.42.93,0,.47L67,29l2.06,6.19.19.19-.52-16.2.36-.92,4.07,0,.41,4.85v1.12l.27,2.91.16.16v.39l-.23.11Z"/><path class="cls-1" d="M90.38,44.3,90.47,46,77,45.85,76.52,33.1l.1-9.41-.49-.82.31-.38,0-4.3L90,18.34l.15.46,0,1.83L90,21l.45,2-2.72,0-6.66.27-.32.19,0,.7-.43.23.41,5,2.4-.13,1.39.18,2.59.57v1.59l-.29,1.08.27.54V34l-6.4.27-.16.39L80.24,36V37.1l.19.39,0,3.37.46.23,6.32.08.93-.27,2.8-.43Z"/><path class="cls-1" d="M92.6,42.85l-.34-.54.28-.39,0-5-.42-.28.2-.19,0-2-.27-.4.21-1,.16-14.33,14.76.16v.93l.48,2.18v1l-.12.27.59,5.86-.12.19-.27.16-2.4-.19h-1l-.27.27L105,34l1.55,6.37.37,2.06-.12.15.27.27.25,1.6-.09.54.35.39.28,2.13-3.95,0-1.72-5.21-.52-1.91-1.54-7.69-.54-3.26-3,0,.53,8.45,0,3.18.09,2.63-.43,3.52-3.8.12-.34-.36,0-.66Zm0,3.37,0,0v-.07Zm11.12-20.6-.07-1.12.09-1.4L96.51,23l.22,1.17V25l-.24.54Z"/><path class="cls-1" d="M124.12,44.68l.1,1.71-13.48-.15-.48-12.75.11-9.42-.5-.82.32-.38,0-4.3,13.48.15.15.47,0,1.82-.12.38.44,2-2.71,0-6.67.28-.31.19,0,.69-.43.23.41,5,2.4-.13,1.4.17,2.59.57,0,1.59L120.5,33l.26.55v.81l-6.39.28-.16.38L114,36.4l0,1.08.19.39,0,3.37.47.24,6.31.07.93-.26,2.8-.44Z"/><path class="cls-1" d="M139.55,47.8,138,47.71l-.59.11-.34-.24-1.52.22-9.68-.11,0-1.75-.3-1.36.29-25.29-.34-.16,13.21.15.8.32,0,4.1-.62-.27-7.44-.09-1.58.06-.24.23,0,2.71.18,1.48,0,2.67.3.28,3.88,0,2.52-.24.06,1.66-.16.16.16,2.75-7-.08.44,2.52,0,3.18L129.81,42l.14,1.67,9.64.1Z"/><path class="cls-1" d="M156.62,25.37l-.17.66,0,3.95-3.45.23.43,3.18.15.12L155,40.73l-.12.47,1.24,6.48-3.56,0-3.95-17.59-.54.11-1.24,0-.62-.12-.43.19.26,8.1-.24.54.22.85v.43l-.12.35.21,1.31-.35.23.35.51L145.71,44l0,2.36.11,1-4.11,0,.13-1.24L142,33.15l-.4-6,.2-3.53.05-4.14.08-.58,14.33.16.35.47-.12.42-.06,5.27Zm-4.29-1-.07-.89-6.47-.07,0,1.82,6.47.23Z"/></svg>